# xmcd CD database file
#
# Track frame offsets:
#	150
#	17745
#	29738
#	62056
#	87108
#	110457
#	127792
#	143608
#	165073
#	255359
#	263436
#	290480
#	302683
#
# Disc length: 4488 seconds
#
# Revision: 0
# Processed by: cddbd v1.5.2PL0 Copyright (c) Steve Scherf et al.
# Submitted via: CDex 1.51
#
DISCID=9c11860d
DTITLE=Ken Nordine - Word Jazz - Sounds in Space
DYEAR=1900
DGENRE=Jazz
TTITLE0=What Time Is It
TTITLE1=My baby
TTITLE2=Sound Museum
TTITLE3=The Vidiot
TTITLE4=Roger
TTITLE5=Hunger Is From
TTITLE6=Looks Like It's Going to Rain
TTITLE7=Fibberty Jib\
TTITLE8=Side 1
TTITLE9=Stravinsky - The Rite of Spring
TTITLE10=Frank - Symphony i nD Minor (Second Movement)
TTITLE11=Beethoven - Symphony No7 in A (First Movement)
TTITLE12=Tchaikovsky - Marche Slave
EXTD=
EXTT0=
EXTT1=
EXTT2=
EXTT3=
EXTT4=
EXTT5=
EXTT6=
EXTT7=
EXTT8=
EXTT9=
EXTT10=
EXTT11=
EXTT12=
PLAYORDER=
